<svg width="32" height="32" version="1.1" xmlns="http://www.w3.org/2000/svg" desc="Created with imagetracer.js version 1.2.6" ><path fill="rgb(0,86,211)" stroke="rgb(0,86,211)" stroke-width="1" opacity="0.9921568627450981" d="M 26.5 0 L 27 1.5 L 18 9.5 L 26.5 0 Z " /><path fill="rgb(0,86,211)" stroke="rgb(0,86,211)" stroke-width="1" opacity="0.9921568627450981" d="M 15.5 11 L 17 11.5 L 9 18.5 L 15.5 11 Z " /><path fill="rgb(0,86,211)" stroke="rgb(0,86,211)" stroke-width="1" opacity="0.9921568627450981" d="M 7.5 19 L 8 20.5 L 0.5 27 L 7.5 19 Z " /><path fill="rgb(0,79,206)" stroke="rgb(0,79,206)" stroke-width="1" opacity="0.996078431372549" d="M 27.5 1 Q 29.8 0.3 29 2.5 L 20.5 12 L 19 9.5 L 27.5 1 Z " /><path fill="rgb(0,79,206)" stroke="rgb(0,79,206)" stroke-width="1" opacity="0.996078431372549" d="M 16.5 12 L 19 12.5 L 9 21.5 L 9 19.5 L 16.5 12 Z " /><path fill="rgb(0,79,206)" stroke="rgb(0,79,206)" stroke-width="1" opacity="0.996078431372549" d="M 7.5 21 L 8 23.5 L 1 29 L 7.5 21 Z " /><path fill="rgb(168,194,237)" stroke="rgb(168,194,237)" stroke-width="1" opacity="1" d="M 15.5 9 L 24 14.5 L 24 23 L 8 23 L 8 14.5 L 9.5 13 L 15.5 9 Z M 16 10 L 12 13 Q 7 15 9 22 L 23 22 L 23 16 L 16 10 Z " /><path fill="rgb(2,115,229)" stroke="rgb(2,115,229)" stroke-width="1" opacity="1" d="M 13.5 0 L 17 0.5 L 0 16.5 L 0 13.5 L 13.5 0 Z " /><path fill="rgb(2,115,229)" stroke="rgb(2,115,229)" stroke-width="1" opacity="1" d="M 10.5 12 L 11.5 14 L 10.5 12 Z " /><path fill="rgb(0,129,239)" stroke="rgb(0,129,239)" stroke-width="1" opacity="0.9882352941176471" d="M 4.5 0 L 13 0.5 L 0 12.5 Q -1.7 3.8 2.5 1 L 4.5 0 Z " /><path fill="rgb(0,107,225)" stroke="rgb(0,107,225)" stroke-width="1" opacity="1" d="M 17.5 0 L 20 0.5 L 0 19.5 L 0 17.5 L 17.5 0 Z " /><path fill="rgb(1,91,213)" stroke="rgb(1,91,213)" stroke-width="1" opacity="1" d="M 24.5 0 L 26 0.5 L 17.5 10 L 16 8.5 L 24.5 0 Z " /><path fill="rgb(1,91,213)" stroke="rgb(1,91,213)" stroke-width="1" opacity="1" d="M 13.5 12 L 9.5 17 L 9 15.5 L 13.5 12 Z " /><path fill="rgb(1,91,213)" stroke="rgb(1,91,213)" stroke-width="1" opacity="1" d="M 21.5 12 L 20.5 14 L 21.5 12 Z " /><path fill="rgb(1,91,213)" stroke="rgb(1,91,213)" stroke-width="1" opacity="1" d="M 7.5 17 L 8 18.5 L 0 25.5 L 7.5 17 Z " /><path fill="rgb(0,66,198)" stroke="rgb(0,66,198)" stroke-width="1" opacity="0.996078431372549" d="M 30.5 3 L 31 6.5 L 23.5 14 L 22 12.5 L 30.5 3 Z " /><path fill="rgb(0,66,198)" stroke="rgb(0,66,198)" stroke-width="1" opacity="0.996078431372549" d="M 20.5 14 Q 22.8 13.3 22 15.5 L 15.5 22 L 13.5 22 L 20.5 14 Z " /><path fill="rgb(0,66,198)" stroke="rgb(0,66,198)" stroke-width="1" opacity="0.996078431372549" d="M 11.5 23 L 14 23.5 L 6.5 31 L 3.5 31 L 3.5 30 L 11.5 23 Z " /><path fill="rgb(0,75,203)" stroke="rgb(0,75,203)" stroke-width="1" opacity="1" d="M 29.5 2 L 21.5 11 L 29.5 2 Z " /><path fill="rgb(0,75,203)" stroke="rgb(0,75,203)" stroke-width="1" opacity="1" d="M 18.5 13 L 10.5 22 L 18.5 13 Z " /><path fill="rgb(0,75,203)" stroke="rgb(0,75,203)" stroke-width="1" opacity="1" d="M 8.5 23 L 2.5 30 L 8.5 23 Z " /><path fill="rgb(0,30,173)" stroke="rgb(0,30,173)" stroke-width="1" opacity="0.996078431372549" d="M 31.5 13 L 32 27.5 L 29.5 31 L 27.5 32 L 13.5 32 L 21.5 23 Q 25.3 24.3 24 20.5 L 31.5 13 Z " /><path fill="rgb(0,98,219)" stroke="rgb(0,98,219)" stroke-width="1" opacity="1" d="M 20.5 0 L 24 0.5 L 8 14.5 L 8 16.5 L 0.5 24 L 0 20.5 L 20.5 0 Z " /><path fill="rgb(0,1,36)" stroke="rgb(0,1,36)" stroke-width="1" opacity="0.14901960784313725" d="M 0 0 L 3 0.5 L 1 1 L 0.5 3 L 0 0 Z " /><path fill="rgb(0,1,36)" stroke="rgb(0,1,36)" stroke-width="1" opacity="0.14901960784313725" d="M 29.5 0 Q 33.3 -1.3 32 2.5 L 31 2.5 Q 31.8 0.3 29.5 1 L 29.5 0 Z " /><path fill="rgb(0,1,36)" stroke="rgb(0,1,36)" stroke-width="1" opacity="0.14901960784313725" d="M 31.5 28 L 32 32 L 28 31.5 L 31 31 L 31.5 28 Z " /><path fill="rgb(0,1,36)" stroke="rgb(0,1,36)" stroke-width="1" opacity="0.14901960784313725" d="M 0.5 29 L 1 31 L 3 31.5 L 0 32 L 0.5 29 Z " /><path fill="rgb(0,79,217)" stroke="rgb(0,79,217)" stroke-width="1" opacity="0.3137254901960784" d="M 27.5 0 L 31 1 L 32 3.5 L 28.5 1 L 27.5 0 Z " /><path fill="rgb(0,79,217)" stroke="rgb(0,79,217)" stroke-width="1" opacity="0.3137254901960784" d="M 0.5 27 L 4 31.5 L 2.5 31 Q 0.3 31.8 1 29.5 L 0.5 27 Z " /><path fill="rgb(0,72,201)" stroke="rgb(0,72,201)" stroke-width="1" opacity="1" d="M 29.5 3 L 30 4.5 L 21.5 12 L 29.5 3 Z " /><path fill="rgb(0,72,201)" stroke="rgb(0,72,201)" stroke-width="1" opacity="1" d="M 19.5 13 L 20 14.5 L 11.5 22 L 19.5 13 Z " /><path fill="rgb(0,72,201)" stroke="rgb(0,72,201)" stroke-width="1" opacity="1" d="M 9.5 23 L 11 23.5 L 3.5 30 L 9.5 23 Z " /><path fill="rgb(0,55,190)" stroke="rgb(0,55,190)" stroke-width="1" opacity="1" d="M 31.5 6 L 32 12.5 L 24 19.5 L 24 13.5 L 31.5 6 Z " /><path fill="rgb(0,55,190)" stroke="rgb(0,55,190)" stroke-width="1" opacity="1" d="M 22.5 15 L 23 22 L 16 21.5 L 22.5 15 Z " /><path fill="rgb(0,55,190)" stroke="rgb(0,55,190)" stroke-width="1" opacity="1" d="M 14.5 23 L 21 23.5 L 12.5 32 L 6.5 32 L 14.5 23 Z " /></svg>